<?xml version="1.0" encoding="UTF-8" standalone="no"?>
<svg
   width="400"
   height="398.01001"
   version="1.1"
   id="svg846"
   sodipodi:docname="24-card-3.svg"
   inkscape:version="1.1 (c68e22c387, 2021-05-23)"
   xmlns:inkscape="http://www.inkscape.org/namespaces/inkscape"
   xmlns:sodipodi="http://sodipodi.sourceforge.net/DTD/sodipodi-0.dtd"
   xmlns="http://www.w3.org/2000/svg"
   xmlns:svg="http://www.w3.org/2000/svg">
  <sodipodi:namedview
     id="namedview8940"
     pagecolor="#ffffff"
     bordercolor="#111111"
     borderopacity="1"
     inkscape:pageshadow="0"
     inkscape:pageopacity="0"
     inkscape:pagecheckerboard="1"
     showgrid="false"
     inkscape:zoom="2.0702997"
     inkscape:cx="165.43499"
     inkscape:cy="214.22019"
     inkscape:window-width="1920"
     inkscape:window-height="1009"
     inkscape:window-x="-8"
     inkscape:window-y="-8"
     inkscape:window-maximized="1"
     inkscape:current-layer="svg846" />
  <defs
     id="defs850" />
  <g
     class="layer"
     id="g844"
     transform="translate(1.8157301,-3)">
    <title
       id="title838">Layer 1</title>
    <g
       id="svgg">
      <path
         d="m 16.09427,3.38 c -0.33,0.19 -1.96,0.97 -3.64,1.74 -6.8200001,3.14 -9.8000001,6.51 -13.2300001,14.96 l -1.04,2.56 0.01,178.94 c 0.01,173.05 0.03,179 0.75,181.13 2.97,8.87 8.11,14.07 17.1200001,17.32 l 2.71,0.98 h 179.46 179.46 l 2.74,-1 c 8.87,-3.21 14.04,-8.46 16.97,-17.23 0.74,-2.22 0.76,-6.24 0.77,-181.24 l 0.01,-178.97 -1.56,-3.81 c -3,-7.36 -7.12,-11.5 -14.51,-14.61 l -2.75,-1.15 -181.33,0.02 c -99.74,0.02 -181.61,0.18 -181.94,0.36 m 192.96,24.71 c 18.97,1.35 38.01,5.64 53.01,11.93 1.64,0.69 3.79,1.57 4.78,1.96 8.78,3.45 23.76,12.05 33.62,19.3 l 4.37,3.21 14.7,0.05 c 13.27,0.05 14.76,0.12 15.2,0.72 0.36,0.5 0.49,4.16 0.48,14.28 0,7.49 0.02,14.06 0.05,14.6 0.02,0.56 1.26,2.64 2.84,4.76 45.57,61.16 44.99,147.69 -1.38,208.42 l -1.37,1.79 0.01,14.52 c 0.01,10.84 -0.11,14.67 -0.47,15.1 -0.41,0.5 -2.74,0.59 -15.11,0.59 -14.53,0 -14.62,0 -15.84,0.89 -11.24,8.21 -17.84,12.33 -27.95,17.45 -57.17,28.95 -127.31,23.58 -179.01,-13.71 -2.47,-1.78 -4.98,-3.55 -5.59,-3.92 -0.99,-0.62 -2.63,-0.69 -15.71,-0.73 -10.77,-0.02 -14.68,-0.16 -14.91,-0.5 -0.27,-0.43 -0.46,-9.61 -0.49,-24.57 l -0.01,-5.4 -2.36,-3.08 c -18.03,-23.52 -30.64,-56.13 -33.48,-86.63 -1.02,-10.93 -0.61,-37.37 0.62,-39.4 0.06,-0.11 0.41,-2.26 0.77,-4.78 2.21,-15.44 7,-30.98 14.47,-46.94 5.23,-11.18 10.6,-20.2 18.14,-30.46 l 2.04,-2.77 0.06,-14.68 c 0.04,-10.49 0.19,-14.81 0.51,-15.14 0.33,-0.32 4.15,-0.47 13.08,-0.52 6.94,-0.03 13.6,-0.07 14.81,-0.1 2.01,-0.03 2.43,-0.22 5.17,-2.27 32.64,-24.42 74.66,-36.83 114.95,-33.97"
         fill="#064ea1"
         fill-rule="evenodd"
         id="path0"
         sodipodi:nodetypes="cccccccccccccccccccccccccccccccccsccccccccccccccccccccc" />
      <path
         d="m 64.05203,64.722352 c -0.48,0.13 1.63,2.48 7.57,8.45 7.49,7.54 38.77,39.209998 71.14,72.019998 6.99,7.09 12.7,13.07 12.7,13.3 0,1.09 -1.15,0.55 -3.26,-1.53 -1.27,-1.24 -11.17,-10.97 -22.01,-21.61 -10.83,-10.64 -25.52,-25.1 -32.64,-32.13 -39.17,-38.719998 -36.58,-36.329998 -36.68,-33.909998 -0.17,4.45 0.18,9.68 0.67,9.97 0.57,0.33 5.49,4.59 12.74,11.04 2.59,2.3 5.83,5.17 7.2,6.37 1.38,1.21 5.04,4.429998 8.13,7.169998 3.1,2.73 6.73,5.93 8.08,7.11 1.35,1.18 3.36,2.97 4.47,3.98 1.11,1.01 4.68,4.17 7.94,7.02 3.26,2.84 7.63,6.69 9.72,8.56 2.09,1.86 5.14,4.54 6.78,5.97 1.64,1.42 5.58,4.89 8.76,7.72 7.52,6.69 15.81,14.03 17.65,15.62 0.83,0.71 1.46,1.63 1.46,2.11 0,1.03 -0.63,0.74 -2.99,-1.4 -2.1,-1.92 -5,-4.43 -8.07,-7.02 -1.38,-1.16 -3.55,-3.01 -4.84,-4.1 -5.55,-4.73 -35.75,-30.77 -38.27,-33 -1.01,-0.9 -2.63,-2.28 -3.58,-3.08 -2.24,-1.85 -13.95,-11.89 -14.53,-12.45 -0.24,-0.24 -1.31,-1.139998 -2.38,-2.019998 -1.06,-0.87 -3.03,-2.58 -4.37,-3.78 -1.34,-1.2 -5.15,-4.48 -8.47,-7.27 l -6.03,-5.09 v 4.99 c 0,2.93 0.16,4.98 0.38,4.98 0.21,0 5.63,4.09 12.04,9.079998 14.26,11.09 25.3,19.67 34.3,26.65 3.74,2.91 8.13,6.31 9.75,7.57 1.61,1.25 4.32,3.35 6.02,4.66 1.69,1.32 6.07,4.72 9.72,7.56 3.65,2.85 7.24,5.63 7.96,6.17 9.48,7.16 13.36,10.39 13.36,11.13 0,0.94 -1.23,0.18 -7.87,-4.86 -3.83,-2.9 -7.33,-5.54 -7.79,-5.87 -1.05,-0.75 -17.41,-13.09 -24.48,-18.45 -2.92,-2.22 -5.82,-4.39 -6.44,-4.83 -0.62,-0.44 -5.01,-3.75 -9.75,-7.36 -4.75,-3.62 -10.1,-7.65 -11.88,-8.96 -1.79,-1.31 -6.2,-4.64 -9.81,-7.4 -11.75,-8.969998 -14.66,-11.109998 -15.1,-11.109998 -0.3,0 -0.4,1.42 -0.33,4.469998 l 0.12,4.48 11.74,7.87 c 10.82,7.26 31.63,21.23 33.59,22.56 0.46,0.31 3.15,2.1 5.97,3.98 36.73,24.42 42.67,28.58 41.9,29.34 -0.4,0.41 -3.07,-1.23 -18.68,-11.5 -2.24,-1.47 -5.44,-3.53 -7.1,-4.57 -1.67,-1.05 -8.53,-5.48 -15.25,-9.86 -6.73,-4.38 -14.6,-9.48 -17.5,-11.34 -7.5,-4.82 -11.14,-7.17 -18.16,-11.76 -18.86,-12.33 -16.71,-11.51 -16.71,-6.34 v 3.75 l 1.55,0.8 c 0.86,0.43 4.22,2.33 7.47,4.22 10.59,6.17 18.42,10.69 31.97,18.48 7.34,4.22 14.8,8.54 16.59,9.6 1.78,1.06 7.43,4.32 12.53,7.25 5.11,2.93 11.35,6.54 13.87,8.02 2.52,1.47 5.69,3.31 7.06,4.07 2.76,1.53 3.18,1.97 2.54,2.61 -0.48,0.48 -1.22,0.17 -5.22,-2.14 -1.21,-0.7 -4.71,-2.65 -7.79,-4.35 -3.07,-1.69 -7.91,-4.39 -10.74,-5.98 -2.84,-1.6 -6.23,-3.48 -7.54,-4.18 -1.32,-0.69 -3.91,-2.12 -5.78,-3.17 -1.86,-1.05 -5.71,-3.19 -8.55,-4.77 -9.92,-5.5 -27.08,-15.02 -28.86,-16.01 -0.98,-0.55 -4.12,-2.3 -6.96,-3.89 -2.85,-1.59 -6.61,-3.7 -8.35,-4.69 -1.75,-0.99 -3.32,-1.72 -3.49,-1.62 -0.57,0.36 -0.35,7.17 0.26,7.68 0.53,0.44 17.2,8.78 17.55,8.78 0.09,0 5.32,2.53 11.62,5.62 6.3,3.09 12.72,6.2 14.25,6.92 1.53,0.72 8.16,3.94 14.72,7.17 6.57,3.22 13.56,6.62 15.53,7.55 14.61,6.9 19.19,9.31 19.44,10.22 0.4,1.52 0.3,50.72 -0.12,51.81 -0.38,1.01 -0.98,1.33 -18.53,9.82 -3.5,1.7 -12.28,5.99 -19.5,9.54 -7.22,3.56 -17.34,8.52 -22.49,11.03 -26.57,12.99 -32.61,16.05 -32.95,16.71 -0.45,0.88 -0.32,6.43 0.17,6.9 0.19,0.18 1.78,-0.52 3.53,-1.56 1.75,-1.03 4.35,-2.51 5.77,-3.28 3.5,-1.88 9.21,-5.06 9.95,-5.52 0.33,-0.21 1.22,-0.71 1.99,-1.11 0.77,-0.4 3.63,-1.99 6.37,-3.53 2.73,-1.54 6.14,-3.42 7.56,-4.19 1.42,-0.77 4.83,-2.66 7.56,-4.18 2.74,-1.53 6.05,-3.38 7.37,-4.1 1.31,-0.72 5.25,-2.92 8.75,-4.88 3.5,-1.97 7.87,-4.37 9.71,-5.33 1.84,-0.96 3.84,-2.11 4.44,-2.54 0.6,-0.43 1.21,-0.78 1.35,-0.78 0.14,0 2.12,-1.06 4.41,-2.36 2.29,-1.29 5.1,-2.82 6.26,-3.4 1.15,-0.57 3.25,-1.74 4.68,-2.6 2.81,-1.68 3.58,-1.9 3.58,-1.01 0,0.49 -1.71,1.76 -4.98,3.68 -4.64,2.74 -12.8,7.44 -14.58,8.4 -1.96,1.06 -14.21,8.21 -15.86,9.25 -0.33,0.21 -0.98,0.55 -1.43,0.75 -0.46,0.2 -2.08,1.12 -3.59,2.05 -3.68,2.26 -18.44,10.71 -18.69,10.71 -0.11,0 -0.69,0.34 -1.28,0.75 -0.6,0.41 -4.13,2.49 -7.85,4.63 -3.72,2.14 -8.38,4.82 -10.35,5.96 -1.97,1.14 -4.74,2.74 -6.17,3.55 -1.42,0.8 -2.85,1.63 -3.18,1.84 -0.33,0.21 -1.7,1 -3.04,1.77 -2.78,1.58 -3.25,2.85 -2.71,7.19 0.33,2.63 0.25,2.62 3.63,0.34 1.49,-1 6.48,-4.26 11.08,-7.23 8.76,-5.65 12.7,-8.21 21.89,-14.23 3.06,-2 7.23,-4.7 9.26,-5.99 2.03,-1.3 6.69,-4.33 10.36,-6.73 20.42,-13.4 21.97,-14.4 26.51,-17.12 0.73,-0.44 3.18,-2.03 5.44,-3.54 4.41,-2.95 5.54,-3.46 5.54,-2.55 0,0.73 -0.53,1.11 -13.53,9.74 -6.02,4 -11.4,7.6 -11.94,8.01 -0.88,0.66 -37.43,25.19 -60,40.27 l -8.06,5.38 v 4.68 c 0,2.57 0.1,4.68 0.24,4.68 0.13,0 1.78,-1.22 3.68,-2.71 1.89,-1.49 4.25,-3.28 5.23,-3.98 0.99,-0.7 2.96,-2.18 4.38,-3.29 1.42,-1.11 7.85,-5.99 14.29,-10.85 6.43,-4.85 13,-9.81 14.59,-11.01 1.6,-1.21 7.49,-5.69 13.11,-9.95 5.61,-4.27 10.98,-8.32 11.93,-9 0.95,-0.68 3.43,-2.56 5.52,-4.18 2.08,-1.62 4.21,-3.24 4.71,-3.6 0.51,-0.37 4.14,-3.1 8.06,-6.07 7.3,-5.53 7.79,-5.84 7.79,-4.83 0,0.71 -4.26,4.19 -19.7,16.12 -1.97,1.52 -6,4.66 -8.96,6.99 -4.73,3.72 -8.91,6.97 -12.3,9.54 -0.58,0.44 -2.99,2.32 -5.36,4.18 -2.37,1.86 -4.9,3.83 -5.62,4.38 -0.73,0.55 -3.44,2.66 -6.03,4.69 -2.6,2.03 -5.59,4.36 -6.65,5.18 -1.07,0.81 -2.61,2.01 -3.43,2.67 -0.83,0.65 -3.34,2.62 -5.6,4.37 -8.04,6.25 -12.57,9.8 -15.76,12.34 -1.78,1.43 -3.53,2.59 -3.88,2.59 -0.55,0 -0.64,0.6 -0.61,4.28 0.04,6.53 -0.6,6.64 8.98,-1.61 4.63,-3.99 11.95,-10.29 16.28,-14.01 4.33,-3.72 9.59,-8.29 11.7,-10.15 2.11,-1.86 5.42,-4.73 7.36,-6.37 3.27,-2.77 15.15,-13.02 23.51,-20.3 23.47,-20.41 26.07,-22.56 26.07,-21.46 0,0.91 -0.75,1.66 -8.78,8.76 -1.63,1.44 -7.09,6.28 -12.13,10.75 -5.05,4.47 -12.03,10.63 -15.51,13.69 -3.48,3.07 -8.83,7.81 -11.9,10.55 -8.09,7.23 -15.17,13.48 -17.5,15.47 -1.12,0.95 -3.56,3.12 -5.42,4.82 -1.86,1.69 -5.01,4.49 -7,6.22 -1.98,1.73 -6.16,5.43 -9.28,8.22 -3.13,2.79 -5.85,4.97 -6.05,4.85 -0.43,-0.27 -0.49,10.55 -0.06,11.22 0.19,0.28 6.86,-6.03 17.81,-16.85 23.46,-23.18 35.96,-35.53 57.43,-56.77 9.91,-9.81 18.23,-17.76 18.48,-17.68 1.33,0.44 1.76,-0.02 -30.54,32.74 -1.09,1.11 -8.17,8.28 -15.72,15.94 -7.55,7.66 -20.67,20.95 -29.15,29.53 -8.49,8.57 -15.43,15.78 -15.43,16 0,0.84 10.89,0.53 11.42,-0.32 0.25,-0.41 2.85,-3.42 5.76,-6.7 2.92,-3.27 6.39,-7.19 7.7,-8.69 1.31,-1.5 4.09,-4.63 6.17,-6.95 2.08,-2.33 6.91,-7.8 10.74,-12.16 3.84,-4.36 9.12,-10.35 11.75,-13.32 2.62,-2.97 8,-9.05 11.94,-13.52 3.94,-4.47 8.86,-10.03 10.94,-12.35 2.08,-2.33 5.57,-6.26 7.76,-8.75 9.39,-10.65 10.3,-11.56 11,-10.86 0.25,0.25 -1.01,1.96 -3.51,4.78 -2.15,2.41 -6.86,7.85 -10.47,12.08 -3.61,4.24 -8.54,9.97 -10.95,12.75 -2.41,2.79 -6.17,7.17 -8.36,9.75 -2.19,2.57 -4.9,5.68 -6.04,6.89 -1.13,1.22 -2.47,2.75 -2.98,3.41 -0.51,0.66 -3.32,3.97 -6.25,7.36 -2.93,3.4 -8.47,9.84 -12.32,14.33 -3.85,4.49 -8.27,9.59 -9.82,11.35 -4.11,4.64 -9.35,10.87 -9.35,11.12 0,0.12 2.24,0.22 4.97,0.22 3.51,0 4.98,-0.14 4.98,-0.46 0,-0.49 1.03,-1.9 7.16,-9.75 10.9,-13.97 14.19,-18.2 14.73,-18.98 0.33,-0.47 2.03,-2.66 3.78,-4.87 1.75,-2.2 4.26,-5.41 5.57,-7.12 1.32,-1.72 3.46,-4.48 4.77,-6.15 1.31,-1.66 3.54,-4.54 4.95,-6.4 1.42,-1.86 3.95,-5.09 5.62,-7.17 1.66,-2.08 4.67,-5.93 6.67,-8.55 3.65,-4.78 7.7,-10.03 9.71,-12.58 0.59,-0.74 2.54,-3.23 4.33,-5.53 3.55,-4.55 5.52,-6.77 6.02,-6.77 0.84,0 0.06,1.42 -2.96,5.36 -1.81,2.37 -3.69,4.86 -4.19,5.54 -1.94,2.68 -6.35,8.52 -21.21,28.11 -2.24,2.95 -8.13,10.74 -13.1,17.31 -4.96,6.57 -10.79,14.27 -12.96,17.11 -9.61,12.62 -14.91,19.85 -14.91,20.35 0,0.6 7.76,0.82 8.57,0.24 0.23,-0.16 2.04,-2.71 4.02,-5.66 1.99,-2.96 7.52,-11.2 12.29,-18.31 4.78,-7.11 14.09,-20.99 20.7,-30.85 27.66,-41.22 26.55,-39.63 27.25,-38.95 0.53,0.51 -0.05,1.51 -7.48,12.88 -2.51,3.83 -5.43,8.31 -6.49,9.95 -1.07,1.65 -3.42,5.26 -5.22,8.04 -3,4.6 -7.72,11.89 -12.06,18.63 -0.92,1.42 -3.6,5.54 -5.95,9.16 -2.36,3.61 -5.04,7.73 -5.96,9.15 -0.93,1.42 -3.28,5.01 -5.22,7.96 -1.95,2.95 -3.74,5.73 -3.98,6.17 -0.24,0.44 -2.02,3.19 -3.94,6.12 -4,6.09 -4.01,6 0.65,6.01 3.23,0.01 4.31,-0.21 4.31,-0.89 0,-0.23 0.74,-1.69 1.65,-3.24 0.9,-1.55 4.02,-6.95 6.92,-11.98 2.89,-5.04 7.19,-12.47 9.55,-16.52 5.62,-9.67 6.81,-11.73 8.19,-14.21 1.08,-1.93 8.84,-15.28 11.93,-20.54 0.75,-1.27 1.74,-2.99 2.21,-3.81 0.46,-0.83 1.88,-3.28 3.15,-5.45 1.27,-2.17 3.88,-6.73 5.81,-10.12 1.93,-3.39 3.69,-6.48 3.92,-6.86 0.56,-0.96 1.6,-0.88 1.6,0.12 0,0.44 -0.6,1.74 -1.32,2.88 -0.73,1.14 -1.6,2.61 -1.93,3.27 -1.46,2.84 -4.64,8.69 -7.03,12.93 -3.74,6.61 -7.67,13.67 -11.42,20.5 -1.81,3.28 -5.84,10.54 -8.96,16.12 -3.11,5.58 -7.5,13.46 -9.74,17.51 -2.24,4.05 -4.93,8.88 -5.98,10.75 -3.59,6.34 -4.91,8.93 -4.71,9.24 0.25,0.4 6.56,0.39 7.2,-0.01 0.41,-0.27 8.34,-16.16 16.52,-33.11 1.22,-2.52 4.66,-9.6 7.66,-15.73 3,-6.12 6.53,-13.38 7.85,-16.11 1.31,-2.74 4.19,-8.65 6.39,-13.14 2.2,-4.49 4.66,-9.6 5.47,-11.36 2.35,-5.09 -1,-4.56 28.58,-4.55 14.16,0 25.96,0.14 26.21,0.3 0.49,0.31 6.24,11.9 28.56,57.6 1.92,3.94 6.75,13.7 10.72,21.69 l 7.22,14.53 3.35,0.12 c 4.83,0.16 4.76,0.4 1.48,-5.37 -2.77,-4.88 -3.65,-6.47 -7.81,-14.05 -1.02,-1.87 -3.57,-6.43 -5.65,-10.15 -2.09,-3.73 -4.43,-7.93 -5.2,-9.36 -0.77,-1.42 -2.26,-4.11 -3.3,-5.97 -1.04,-1.86 -2.48,-4.48 -3.21,-5.83 -0.73,-1.35 -2.23,-4.02 -3.33,-5.93 -1.1,-1.91 -2,-3.52 -2,-3.57 0,-0.05 -0.99,-1.83 -2.19,-3.95 -1.21,-2.13 -2.19,-3.96 -2.19,-4.07 0,-0.11 -0.66,-1.3 -1.46,-2.65 -0.8,-1.35 -1.85,-3.17 -2.34,-4.05 -0.48,-0.87 -2.06,-3.7 -3.51,-6.28 -1.45,-2.58 -2.64,-4.78 -2.64,-4.88 0,-0.1 -0.92,-1.81 -2.05,-3.79 -1.82,-3.2 -2.22,-4.95 -0.93,-4.03 0.45,0.31 2.41,3.23 3.4,5.05 0.35,0.66 1.27,2.27 2.04,3.58 0.77,1.32 2.43,4.18 3.7,6.37 1.27,2.19 3.51,6.04 4.99,8.56 1.48,2.52 3.09,5.29 3.58,6.17 1.14,2.06 3.44,6.03 6.79,11.74 1.48,2.52 3.19,5.5 3.82,6.63 0.62,1.13 2.2,3.9 3.52,6.15 1.31,2.26 2.65,4.6 2.98,5.19 0.76,1.36 2.29,4.01 5.98,10.29 1.6,2.74 3.3,5.69 3.77,6.57 0.48,0.87 2.27,4.01 3.99,6.96 1.71,2.96 3.78,6.54 4.59,7.96 l 1.47,2.59 3.5,0.12 c 5.6,0.18 5.65,0.99 -0.52,-8.44 -2.3,-3.52 -5.12,-7.84 -6.26,-9.59 -1.14,-1.75 -3.47,-5.33 -5.19,-7.96 -1.71,-2.63 -4.4,-6.75 -5.97,-9.15 -1.57,-2.41 -4.61,-7.07 -6.76,-10.35 -2.15,-3.29 -4.1,-6.33 -4.34,-6.77 -0.24,-0.44 -2.39,-3.75 -4.77,-7.36 -7.4,-11.2 -11.58,-17.61 -13.21,-20.23 -0.85,-1.38 -2.87,-4.51 -4.48,-6.96 -3.28,-4.99 -4.19,-6.62 -3.89,-6.93 0.56,-0.55 1.61,0.63 4.9,5.53 1.96,2.91 6.52,9.69 10.14,15.05 11.78,17.49 21.35,31.73 33.3,49.56 6.45,9.63 12.04,17.96 12.41,18.5 0.37,0.55 1.19,1.8 1.82,2.79 1.58,2.44 1.4,2.38 6.44,2.38 4.39,0.01 5,-0.19 3.96,-1.26 -0.28,-0.29 -3.36,-4.28 -6.85,-8.88 -3.48,-4.6 -8.04,-10.6 -10.12,-13.33 -2.08,-2.74 -7.07,-9.35 -11.09,-14.7 -4.02,-5.34 -7.95,-10.51 -8.75,-11.48 -0.79,-0.97 -2.26,-2.89 -3.25,-4.26 -1,-1.38 -3.43,-4.61 -5.4,-7.19 -1.97,-2.57 -6.51,-8.55 -10.09,-13.28 -14.85,-19.63 -15.07,-19.94 -14.05,-19.94 0.37,0 3.11,2.85 4.04,4.21 0.33,0.48 1.95,2.55 3.6,4.6 1.64,2.05 3.26,4.11 3.58,4.58 0.32,0.48 2.06,2.72 3.87,4.98 5.02,6.3 12.48,15.83 23.65,30.25 2.78,3.58 6.83,8.76 9,11.52 3.84,4.87 6.62,8.48 8.24,10.7 0.44,0.6 2.21,2.84 3.94,4.98 1.73,2.13 4.06,5.08 5.17,6.55 1.12,1.47 3.52,4.57 5.32,6.88 1.81,2.32 3.29,4.41 3.29,4.65 0,0.28 1.67,0.43 4.99,0.43 5.84,0 5.76,0.46 0.92,-5.04 -5.39,-6.15 -18.68,-21.5 -20.44,-23.62 -0.88,-1.06 -3.21,-3.75 -5.18,-5.99 -1.97,-2.24 -4.97,-5.7 -6.67,-7.7 -1.7,-1.99 -4.57,-5.31 -6.37,-7.38 -4.05,-4.65 -17.84,-20.6 -24.26,-28.08 -2.64,-3.07 -5.74,-6.65 -6.89,-7.96 -7.26,-8.26 -7.19,-8.16 -5.96,-8.16 0.91,0 2,1.16 15.37,16.32 6.86,7.77 12.57,14.22 12.7,14.33 0.13,0.1 1.46,1.63 2.97,3.38 1.51,1.75 2.84,3.27 2.97,3.38 0.12,0.11 1.39,1.54 2.81,3.17 1.42,1.63 2.86,3.26 3.18,3.61 1.59,1.72 4.64,5.16 9.36,10.53 2.84,3.24 6.34,7.17 7.77,8.72 1.42,1.56 4.46,4.98 6.75,7.6 2.29,2.63 5.79,6.57 7.77,8.76 6.74,7.44 11.74,13.28 11.74,13.7 0,0.29 2.04,0.43 6.08,0.43 h 6.09 l -9.17,-9.27 c -21.41,-21.63 -68.75,-69.54 -75.76,-76.67 -4.18,-4.25 -7.51,-7.89 -7.39,-8.08 0.62,-1 -0.08,-1.65 29.18,27.13 46.58,45.81 64.37,63.3 65.1,63.99 0.4,0.38 0.54,-0.04 0.67,-2.13 0.22,-3.52 -0.1,-9.73 -0.49,-9.49 -0.26,0.16 -2.45,-1.37 -3.17,-2.22 -0.11,-0.13 -1.72,-1.56 -3.58,-3.18 -1.86,-1.62 -5.17,-4.57 -7.36,-6.55 -2.19,-1.97 -5.84,-5.2 -8.11,-7.17 -6.66,-5.77 -20.53,-17.98 -24.15,-21.26 -1.1,-1 -2.62,-2.35 -3.38,-3 -0.76,-0.65 -2.99,-2.62 -4.96,-4.38 -1.97,-1.75 -4.92,-4.36 -6.56,-5.78 -1.64,-1.42 -6.92,-6.08 -11.73,-10.35 -4.8,-4.27 -11.16,-9.88 -14.13,-12.47 -5.72,-4.99 -7,-6.36 -6.58,-7.04 0.28,-0.45 2.31,1.07 5.96,4.44 1.1,1.01 2.62,2.36 3.39,2.98 2.03,1.67 17.54,14.94 21.55,18.44 3.45,3.01 8.03,6.91 11.33,9.64 0.97,0.8 3.14,2.68 4.81,4.18 1.68,1.49 3.87,3.44 4.87,4.33 1.92,1.7 10.58,9.12 14.08,12.06 2.31,1.94 7.4,6.3 12.6,10.8 1.9,1.65 5.12,4.42 7.16,6.17 2.04,1.75 4.72,4.05 5.94,5.11 l 2.23,1.92 0.27,-1.29 c 0.51,-2.52 -0.09,-8.54 -0.9,-8.95 -0.4,-0.2 -2.39,-1.66 -4.42,-3.24 -6.44,-4.99 -13.9,-10.78 -18.43,-14.28 -2.41,-1.86 -5.63,-4.37 -7.16,-5.58 -2.54,-1.99 -5.95,-4.63 -10.3,-7.98 -0.91,-0.69 -3.16,-2.44 -5.03,-3.89 -1.86,-1.45 -4.72,-3.67 -6.36,-4.93 -1.64,-1.27 -6.84,-5.3 -11.54,-8.96 -31.73,-24.64 -30.73,-23.83 -30.02,-24.54 0.22,-0.22 2.08,0.93 4.69,2.9 2.38,1.8 5.18,3.89 6.23,4.66 1.06,0.76 5.08,3.81 8.94,6.76 3.87,2.96 8.14,6.19 9.49,7.17 1.35,0.99 3.28,2.42 4.29,3.19 1.01,0.76 6.02,4.55 11.15,8.42 5.12,3.86 14.68,11.09 21.25,16.05 23.55,17.79 27.19,20.5 27.63,20.5 0.31,0 0.42,-1.35 0.34,-4.45 l -0.11,-4.45 -14.93,-9.99 c -13.01,-8.71 -49.2,-32.96 -71.64,-48.02 -6.57,-4.41 -8.72,-6.33 -7.09,-6.33 0.51,0 2.26,1.11 17.64,11.1 3.72,2.41 10.97,7.11 16.11,10.43 5.15,3.32 10.79,6.97 12.54,8.11 1.75,1.15 4.8,3.12 6.77,4.38 4.52,2.89 13.21,8.54 34.83,22.64 5.82,3.79 5.97,3.78 5.96,-0.62 -0.01,-4.1 0.61,-3.42 -7.16,-7.85 -3.61,-2.06 -9.16,-5.26 -12.34,-7.12 -3.17,-1.86 -7.83,-4.53 -10.35,-5.94 -2.51,-1.41 -5.02,-2.85 -5.57,-3.2 -1.17,-0.75 -25.46,-14.75 -28.65,-16.51 -1.21,-0.67 -2.64,-1.52 -3.19,-1.89 -0.55,-0.38 -3.68,-2.21 -6.96,-4.06 -3.29,-1.86 -8.03,-4.6 -10.55,-6.09 -2.52,-1.49 -5.71,-3.32 -7.09,-4.08 -1.75,-0.95 -2.47,-1.56 -2.37,-2.02 0.2,-0.96 0.98,-0.7 5.34,1.79 2.16,1.22 5.26,2.95 6.9,3.83 1.65,0.88 3.8,2.04 4.78,2.59 0.99,0.55 3.11,1.74 4.72,2.63 4.19,2.33 5.82,3.23 13.19,7.29 3.61,1.98 7.96,4.44 9.66,5.44 1.71,1.01 3.18,1.84 3.29,1.84 0.1,0 2.47,1.29 5.26,2.86 2.79,1.57 6.06,3.38 7.26,4.03 2.16,1.17 20.8,11.52 24.28,13.49 6.21,3.52 8.57,4.7 9.03,4.52 0.76,-0.29 0.73,-6.72 -0.03,-7.36 -0.49,-0.4 -16.13,-8.11 -27.22,-13.41 -2.03,-0.97 -9.88,-4.8 -17.44,-8.52 -7.57,-3.71 -13.81,-6.75 -13.88,-6.75 -0.06,0 -4.93,-2.35 -10.81,-5.23 -5.88,-2.87 -13.46,-6.55 -16.84,-8.17 -3.38,-1.62 -6.47,-3.23 -6.87,-3.59 -0.67,-0.61 -0.71,-2.13 -0.71,-26.88 v -26.23 l 11.04,-5.4 c 6.07,-2.97 14.63,-7.14 19.01,-9.28 4.37,-2.13 12.88,-6.3 18.9,-9.26 6.02,-2.95 17.21,-8.43 24.88,-12.17 7.66,-3.74 15.27,-7.51 16.91,-8.37 l 2.99,-1.57 0.11,-3.29 c 0.17,-4.55 0.09,-4.66 -2.2,-3.3 -1.04,0.61 -3.24,1.85 -4.88,2.75 -3.31,1.81 -7.1,3.91 -20.3,11.24 -4.92,2.74 -12.35,6.86 -16.51,9.16 -15.03,8.3 -19.17,10.61 -22.76,12.65 -2,1.15 -4.06,2.22 -4.57,2.38 -0.51,0.16 -1.47,0.69 -2.13,1.18 -0.65,0.49 -2.53,1.61 -4.18,2.49 -3.22,1.72 -8.52,4.62 -12.85,7.04 -2.68,1.49 -3.63,1.59 -2.82,0.3 0.53,-0.83 4.22,-3.05 22.64,-13.63 2.41,-1.38 5.09,-2.94 5.97,-3.47 2.2,-1.32 11.31,-6.59 14.92,-8.63 3.05,-1.72 4.96,-2.82 7.27,-4.17 1.29,-0.75 11.7,-6.75 21.72,-12.51 2.92,-1.68 5.39,-3.05 5.48,-3.05 0.1,0 0.94,-0.49 1.86,-1.09 0.93,-0.59 4.28,-2.56 7.46,-4.38 l 5.77,-3.29 0.2,-2.09 c 0.27,-2.83 0.01,-5.87 -0.49,-5.87 -0.23,0 -2.77,1.56 -5.64,3.46 -2.87,1.9 -8.26,5.42 -11.98,7.81 -3.72,2.4 -8.2,5.3 -9.95,6.45 -3.76,2.46 -13.3,8.66 -20.19,13.11 -2.69,1.74 -8.02,5.21 -11.85,7.73 -9.62,6.3 -16.41,10.71 -19.7,12.78 -1.54,0.97 -4.79,3.06 -7.24,4.66 -5,3.26 -6.37,3.97 -6.8,3.53 -0.32,-0.33 2.37,-2.71 4.53,-4 0.72,-0.44 6.03,-3.97 11.78,-7.85 20.38,-13.73 50.44,-33.88 63.87,-42.8 l 13.61,-9.05 0.02,-4.68 c 0.01,-2.569998 -0.08,-4.679998 -0.22,-4.679998 -0.22,0 -7.59,5.509998 -21.84,16.319998 -3.07,2.33 -9.69,7.34 -14.73,11.15 -5.03,3.8 -12.02,9.09 -15.52,11.74 -12.82,9.71 -17.93,13.56 -18.75,14.14 -0.47,0.32 -2.62,1.94 -4.78,3.59 -12.79,9.79 -17.32,13.11 -17.85,13.11 -1.08,0 0.61,-1.78 4.86,-5.13 13.6,-10.71 18.51,-14.55 22.98,-17.95 0.72,-0.55 5.2,-4.04 9.95,-7.76 4.75,-3.73 9.22,-7.22 9.94,-7.77 4.89,-3.73 6.39,-4.89 9.69,-7.49 2.03,-1.61 4.9,-3.83 6.37,-4.95 1.46,-1.12 4.03,-3.12 5.71,-4.44 1.68,-1.33 3.98,-3.14 5.12,-4.01 1.14,-0.88 3.55,-2.76 5.36,-4.18 1.81,-1.42 5.47,-4.259998 8.13,-6.319998 2.67,-2.05 5.11,-3.98 5.43,-4.3 0.61,-0.62 0.79,-4.94 0.32,-7.78 l -0.24,-1.48 -1.1,0.78 c -0.6,0.43 -2.25,1.81 -3.67,3.07 -3.31,2.97 -15.57,13.549998 -17.18,14.829998 -0.68,0.54 -4.73,4.04 -9,7.76 -4.28,3.73 -9.46,8.21 -11.52,9.96 -2.07,1.75 -4.57,3.91 -5.57,4.8 -3.12,2.79 -20.63,17.81 -23.11,19.82 -0.76,0.62 -2.2,1.88 -3.18,2.79 -0.99,0.92 -2.96,2.65 -4.38,3.84 -1.42,1.2 -3.93,3.36 -5.57,4.81 -4.84,4.26 -8.83,7.52 -9.21,7.52 -1.52,0 0.87,-2.36 15.38,-15.18 2.62,-2.32 8.18,-7.24 12.35,-10.94 4.17,-3.69 8.91,-7.87 10.55,-9.28 1.63,-1.41 3.26,-2.85 3.61,-3.19 0.35,-0.34 2.49,-2.23 4.76,-4.2 2.28,-1.97 5.3,-4.67 6.73,-6 1.43,-1.33 3.85,-3.47 5.38,-4.75 1.53,-1.28 2.97,-2.53 3.18,-2.78 0.22,-0.25 2.55,-2.35 5.18,-4.66 2.63,-2.309998 7.57,-6.689998 10.99,-9.719998 3.42,-3.04 8.28,-7.31 10.81,-9.5 2.6,-2.25 4.71,-4.4 4.85,-4.94 0.52,-1.9 0.12,-11.74 -0.42,-10.71 -0.28,0.51 -8.88,9.16 -19.12,19.23 -10.25,10.07 -20.62,20.279998 -23.05,22.689998 -5.8,5.76 -31.52,31.18 -42.47,41.98 -6.35,6.27 -8.77,8.42 -9.09,8.09 -0.7,-0.69 -0.52,-0.89 13.17,-14.74 18.95,-19.17 75.72,-76.859998 77.71,-78.969998 0.67,-0.71 0.66,-0.74 -0.4,-0.76 -0.6,-0.01 -2.61,-0.09 -4.47,-0.19 -3.91,-0.2 -6.37,0.08 -6.38,0.74 -0.01,0.26 -2.26,2.97 -5.01,6.04 -2.74,3.06 -8.69,9.77 -13.22,14.9 -4.53,5.13 -9.91,11.22 -11.97,13.53 -2.06,2.309998 -4.66,5.259998 -5.77,6.549998 -1.12,1.29 -3.03,3.44 -4.25,4.78 -1.97,2.15 -6.4,7.17 -18.81,21.3 -2.01,2.28 -4.47,5.06 -5.47,6.17 -1,1.11 -3.49,3.9 -5.53,6.2 -2.04,2.3 -4.89,5.52 -6.34,7.15 -5,5.64 -6.12,6.78 -6.66,6.78 -1.26,0 0.11,-2 4.49,-6.56 0.84,-0.88 1.8,-1.98 2.13,-2.45 0.62,-0.89 4.09,-4.93 11.16,-13.04 2.31,-2.65 5.18,-5.99 6.37,-7.43 2.32,-2.79 11.54,-13.48 17.35,-20.11 1.94,-2.21 4.42,-5.07 5.52,-6.36 2.62,-3.089998 5.94,-6.949998 10.56,-12.269998 2.07,-2.39 4.84,-5.63 6.15,-7.19 1.32,-1.57 3.41,-4 4.66,-5.41 5.09,-5.75 11.05,-12.86 10.9,-13 -0.62,-0.63 -9.78,-0.33 -9.78,0.32 0,0.17 -5.24,7.07 -11.65,15.32 -6.4,8.25 -12.35,15.93 -13.23,17.07 -0.88,1.13 -6.25,8.029998 -11.94,15.309998 -5.69,7.29 -11.06,14.2 -11.94,15.36 -2.57,3.39 -10.15,13.18 -13.77,17.76 -1.84,2.34 -4.68,5.98 -6.32,8.1 -2.64,3.42 -3.8,4.58 -4.56,4.58 -0.93,0 0.48,-1.93 27.68,-37.81 10.45,-13.79 22.18,-29.309998 35.69,-47.229998 3.33,-4.41 6.06,-8.23 6.06,-8.47 0,-0.31 -1.37,-0.41 -4.46,-0.33 l -4.46,0.11 -9.18,13.73 c -5.05,7.55 -11.78,17.56 -14.95,22.239998 -3.17,4.68 -5.94,8.78 -6.16,9.12 -4.3,6.65 -31.44,46.95 -32.17,47.75 -0.44,0.49 -1.04,0.89 -1.33,0.89 -0.71,0 -0.67,-0.98 0.07,-1.59 0.33,-0.27 0.6,-0.65 0.6,-0.84 0,-0.2 2.64,-4.38 5.87,-9.3 3.23,-4.93 8.02,-12.28 10.64,-16.34 5.21,-8.05 10.93,-16.86 15.68,-24.14 1.66,-2.56 4.8,-7.399998 6.97,-10.749998 3.43,-5.3 6.19,-9.54 17.22,-26.47 2.93,-4.49 2.92,-4.5 -1.59,-4.5 h -3.71 l -3.92,6.87 c -3.69,6.48 -5.05,8.83 -9.69,16.71 -1.06,1.81 -2.43,4.18 -3.03,5.28 -1.18,2.15 -8.31,14.499998 -13.56,23.479998 -8.76,14.99 -10.38,17.79 -10.89,18.8 -0.31,0.61 -2.92,5.13 -5.82,10.06 -2.89,4.92 -5.65,9.72 -6.13,10.66 -0.89,1.75 -1.65,2.35 -2.42,1.88 -0.41,-0.26 0.21,-1.59 2.78,-5.98 1.87,-3.19 4.38,-7.77 4.38,-7.99 0,-0.13 0.7,-1.42 1.54,-2.88 1.99,-3.43 6.87,-12.09 8.11,-14.4 1.58,-2.93 7.34,-13.34 9.21,-16.64 2.19,-3.85 2.92,-5.16 4.81,-8.63 0.84,-1.54 2.82,-5.119998 4.41,-7.969998 3.68,-6.59 10.34,-18.56 11.64,-20.89 0.54,-0.99 1.68,-2.99 2.53,-4.45 2.26,-3.92 2.24,-3.96 -2.15,-3.82 l -3.68,0.11 -4.78,9.6 c -2.62,5.28 -7.81,15.85 -11.52,23.48 -3.71,7.639998 -10.02,20.569998 -14.03,28.739998 -4,8.17 -7.28,14.91 -7.28,14.99 0,0.4 -7.99,16.49 -8.28,16.67 -0.87,0.54 -51.83,0.34 -52.49,-0.2 -0.6,-0.5 -3.07,-5.42 -15.84,-31.59 -4.47,-9.17 -7.6,-15.53 -21.99,-44.769998 -9.16,-18.62 -8.08,-17.12 -12.24,-17.12 -4.04,0 -4.07,0.04 -2.53,2.75 0.69,1.23 2.1,3.75 3.13,5.61 1.02,1.86 6.21,11.17 11.53,20.7 5.31,9.519998 10.81,19.459998 12.23,22.089998 1.42,2.62 2.8,5.13 3.08,5.58 0.28,0.44 1.88,3.31 3.56,6.37 1.67,3.06 3.21,5.83 3.42,6.15 0.21,0.33 0.73,1.23 1.14,2 0.41,0.76 2.05,3.72 3.63,6.56 1.58,2.85 3.4,6.16 4.05,7.37 0.64,1.2 1.89,3.5 2.77,5.1 1.59,2.88 1.73,3.82 0.46,3.01 -0.56,-0.35 -4.49,-6.27 -4.49,-6.76 0,-0.09 -0.79,-1.48 -1.76,-3.08 -0.97,-1.59 -2.19,-3.69 -2.72,-4.67 -1.12,-2.06 -6.33,-11.12 -9.04,-15.69 -3.08,-5.21 -8.02,-13.78 -9.29,-16.12 -0.66,-1.21 -1.49,-2.64 -1.86,-3.19 -0.37,-0.55 -1.22,-1.98 -1.88,-3.18 -0.65,-1.21 -1.58,-2.82 -2.04,-3.58 -0.47,-0.77 -0.98,-1.66 -1.14,-1.989998 -0.15,-0.33 -1.07,-1.94 -2.05,-3.59 -1.82,-3.08 -12.85,-22.19 -15.84,-27.46 -2.38,-4.19 -2.04,-3.98 -6.32,-3.98 -4.65,0 -4.63,-0.27 -0.49,6 1.81,2.73 4.92,7.46 6.91,10.53 1.99,3.06 5.76,8.83 8.36,12.82 2.6,3.99 6.62,10.159998 8.91,13.709998 2.3,3.55 5.79,8.92 7.77,11.92 5.06,7.74 8.48,13.02 13.61,21.03 2.46,3.84 4.84,7.51 5.29,8.17 3.99,5.76 5.9,9.16 5.42,9.64 -0.56,0.56 -0.5,0.66 -13.57,-18.79 -3.09,-4.6 -10.61,-15.8 -16.72,-24.88 -6.11,-9.08 -13.12,-19.559998 -15.59,-23.279998 -2.47,-3.72 -4.95,-7.4 -5.49,-8.16 -0.55,-0.77 -1.85,-2.68 -2.9,-4.25 -1.04,-1.57 -3.64,-5.46 -5.78,-8.65 l -3.89,-5.81 h -4.57 c -2.51,0 -4.57,0.15 -4.57,0.34 0,0.31 3.35,4.83 12.17,16.38 9.66,12.66 13.6,17.85 14.68,19.339998 1.18,1.61 2.32,3.13 11.14,14.69 2.34,3.06 5.81,7.62 7.71,10.12 2.99,3.93 5.31,6.98 9.62,12.62 0.55,0.72 2.02,2.7 3.28,4.4 1.25,1.71 3.27,4.36 4.48,5.89 2.91,3.7 6.97,9.41 6.97,9.82 0,0.88 -1.16,0.12 -2.69,-1.76 -3.02,-3.74 -7.43,-9.31 -9.05,-11.44 -0.88,-1.15 -2.49,-3.21 -3.58,-4.59 -2.27,-2.84 -9.17,-11.64 -11.55,-14.72 -0.87,-1.14 -3.65,-4.71 -6.17,-7.95 -2.51,-3.23 -5.02,-6.46 -5.57,-7.17 -0.55,-0.7 -2.29,-2.96 -3.88,-5.02 -1.59,-2.05 -4.24,-5.44 -5.9,-7.519998 -1.65,-2.07 -3.49,-4.4 -4.07,-5.17 -7.19,-9.32 -19.56,-25.17 -20.46,-26.21 -0.64,-0.74 -1.08,-1.56 -0.98,-1.82 0.21,-0.54 -5.49,-0.81 -8.19,-0.39 -2,0.31 -2.82,-0.84 10.25,14.27 3.06,3.54 8.26,9.54 11.54,13.33 3.28,3.8 6.25,7.19 6.59,7.54 0.33,0.359998 2.04,2.329998 3.78,4.399998 1.74,2.06 3.81,4.48 4.61,5.37 0.79,0.89 4.53,5.2 8.31,9.58 3.78,4.38 9.49,10.99 12.69,14.68 6.81,7.88 10.94,12.69 14.89,17.33 1.58,1.85 3.53,4.11 4.35,5.02 1.5,1.67 1.87,2.57 1.06,2.57 -0.64,0 -3.94,-3.5 -13.1,-13.9 -2.95,-3.36 -7.88,-8.91 -10.94,-12.33 -3.07,-3.42 -7.45,-8.36 -9.75,-10.97 -7.13,-8.1 -10.74,-12.19 -16.72,-18.91 -5.15,-5.789998 -13.38,-15.069998 -17.14,-19.329998 -0.75,-0.85 -2.18,-2.45 -3.18,-3.55 -1,-1.1 -3.69,-4.15 -5.97,-6.78 -2.29,-2.63 -4.34,-4.97 -4.56,-5.22 -0.21,-0.24 -0.98,-1.09 -1.7,-1.89 l -1.3,-1.45 -4.86,0.05 c -2.68,0.03 -5.17,0.13 -5.54,0.22 m 173.9,136.999998 c 0.08,28.9 -0.01,39.71 -0.34,40.1 -0.63,0.75 -78.73,0.81 -79.48,0.07 -0.52,-0.53 -0.73,-79.14 -0.21,-79.66 0.15,-0.15 18.19,-0.22 40.1,-0.17 l 39.83,0.1 0.1,39.56 m -76.3,-35.4 c -0.5,0.92 -0.58,70.79 -0.08,71.57 0.25,0.4 7.82,0.48 36.51,0.4 l 36.19,-0.1 0.11,-35.43 c 0.06,-19.48 0.01,-35.82 -0.11,-36.32 l -0.21,-0.89 h -36 c -35.18,0 -36.01,0.02 -36.41,0.77"
         fill="#e21c5e"
         fill-rule="evenodd"
         id="path1" />
      <path
         id="path10141"
         d="m 184.87203,28.377353 c -25.01,2.46 -42.21,7.11 -62.35,16.85 -13.23,6.39 -28.87,16.29 -29.3,18.54 l -0.18,0.96 4.42,0.05 c 2.43,0.03 4.6,0 4.82,-0.06 1.78,-0.45 2.3,-0.41 3,0.22 0.49,0.45 0.78,0.53 0.78,0.23 0,-0.47 0.49,-0.49 9.95,-0.48 0.77,0 3.1,0 5.19,0 4.81,-0.01 3.58,-1.65 12.83,17.16 14.39,29.239997 17.52,35.599997 21.99,44.769997 12.77,26.17 15.24,31.09 15.84,31.59 0.66,0.54 51.62,0.74 52.49,0.2 0.29,-0.18 8.28,-16.27 8.28,-16.67 0,-0.08 3.28,-6.82 7.28,-14.99 4.01,-8.17 10.32,-21.1 14.03,-28.739997 3.71,-7.63 8.9,-18.2 11.52,-23.48 l 4.78,-9.6 3.68,-0.11 c 2.72,-0.09 3.68,0.01 3.68,0.37 0,0.39 0.11,0.39 0.48,0.02 0.6,-0.6 2.4,-0.62 2.98,-0.05 0.31,0.32 0.51,0.32 0.7,0 0.37,-0.6 7.78,-0.58 7.78,0.02 0,0.33 0.15,0.33 0.54,0 0.5,-0.42 2.8,-0.72 3.64,-0.47 1.75,0.51 9.26,-0.04 9.21,-0.67 -0.21,-2.58 -22.46,-16.01 -36.47,-22.01 -11.43,-4.9 -27.01,-9.62 -36.7,-11.12 -1.46,-0.23 -2.9,-0.5 -3.18,-0.61 -3.86,-1.44 -32.97,-2.78 -41.71,-1.92 m -125.25,68.7 c -1.48,0.83 -6.55,8.089997 -12.15,17.399997 -9.72,16.17 -19.34,43.18 -21.42,60.08 -0.2,1.65 -0.62,4.88 -0.94,7.17 -5.74,41.48 7.96,92.91 33.07,124.1 2.53,3.13 2.88,1.57 2.48,-11.05 -0.1,-3.24 -0.11,-5.95 -0.03,-8.75 0.05,-1.72 0.06,-2.32 0.09,-3.89 0,-0.38 -0.07,-2.04 -0.16,-3.68 -0.25,-4.52 -3.65,-2.43 33.16,-20.42 5.15,-2.51 15.27,-7.47 22.49,-11.03 7.22,-3.55 16,-7.84 19.5,-9.54 17.55,-8.49 18.15,-8.81 18.53,-9.82 0.42,-1.09 0.52,-50.29 0.12,-51.81 -0.25,-0.91 -4.83,-3.32 -19.44,-10.22 -1.97,-0.93 -8.96,-4.33 -15.53,-7.55 -6.56,-3.23 -13.19,-6.45 -14.72,-7.17 -1.53,-0.72 -7.95,-3.83 -14.25,-6.92 -6.3,-3.09 -11.53,-5.62 -11.62,-5.62 -0.35,0 -17.02,-8.34 -17.55,-8.78 -0.44,-0.37 -0.54,-2.42 -0.52,-10.66 0.02,-5.61 -0.09,-10.7 -0.25,-11.31 -0.15,-0.6 -0.12,-1.32 0.06,-1.59 0.86,-1.23 0.01,-9.459997 -0.92,-8.939997 m 275.21,4.539997 c -0.06,2.59 0.06,5.19 0.27,5.78 0.29,0.84 0.22,1.24 -0.33,1.85 -0.44,0.49 -0.54,0.83 -0.25,0.92 0.29,0.1 0.42,1.46 0.39,3.92 -0.02,2.08 -0.02,4 0,4.27 0.09,0.87 0.06,2.96 -0.07,7.2 l -0.12,4.11 -2.99,1.57 c -1.64,0.87 -9.25,4.64 -16.91,8.38 -7.67,3.74 -18.86,9.22 -24.88,12.17 -6.02,2.96 -14.53,7.13 -18.9,9.26 -4.38,2.14 -12.94,6.31 -19.01,9.28 l -11.04,5.4 v 26.23 c 0,24.75 0.04,26.27 0.71,26.88 0.4,0.36 3.49,1.97 6.87,3.59 3.38,1.62 10.96,5.3 16.84,8.17 5.88,2.88 10.75,5.23 10.81,5.23 0.07,0 6.31,3.04 13.88,6.75 7.56,3.72 15.41,7.55 17.44,8.52 11.09,5.3 26.73,13.01 27.22,13.41 0.67,0.57 0.8,6.94 0.14,7.35 -0.26,0.16 -0.28,0.43 -0.05,0.72 0.53,0.66 0.58,10.89 0.05,11.21 -0.29,0.19 -0.28,0.43 0.03,0.81 0.25,0.29 0.42,1.31 0.38,2.25 -0.22,5.5 0.03,10.73 0.5,10.58 2.72,-0.86 15.98,-22.87 21.87,-36.32 4.77,-10.88 11.07,-31.95 11.07,-37.02 0,-0.8 0.18,-1.8 0.41,-2.23 3.29,-6.15 3.32,-44.87 0.04,-59.97 -0.22,-1.04 -0.88,-4.21 -1.46,-7.06 -4.37,-21.49 -14.63,-44.76 -27.81,-63.13 -4.52,-6.299997 -4.95,-6.309997 -5.1,-0.08 m -163.72,144.09 c -0.38,0.38 -1.35,2.13 -2.16,3.88 -0.81,1.76 -3.27,6.87 -5.47,11.36 -2.2,4.49 -5.08,10.4 -6.39,13.14 -1.32,2.73 -4.85,9.99 -7.85,16.11 -3,6.13 -6.44,13.21 -7.66,15.73 -7.89,16.36 -16.1,32.84 -16.47,33.07 -0.24,0.15 -7.61,0.27 -16.36,0.28 -14.5,0.02 -17.6,0.2 -16.59,1 56.63,44.83 139.93,47.64 201.76,6.79 6.39,-4.22 8.92,-6.18 9.08,-7.03 0.15,-0.76 1.83,-0.7 -20.82,-0.82 l -11.94,-0.06 -7.22,-14.53 c -3.97,-7.99 -8.8,-17.75 -10.72,-21.69 -22.32,-45.7 -28.07,-57.29 -28.56,-57.6 -1.12,-0.71 -51.91,-0.35 -52.63,0.37"
         style="fill:#fbba26;fill-opacity:1" />
    </g>
  </g>
  <circle
     style="fill:#fbba26;fill-opacity:1;stroke-width:0.0374349"
     id="path10283"
     cx="366.36502"
     cy="328.43652"
     r="7" />
  <circle
     style="fill:#fbba26;fill-opacity:1;stroke-width:0.0374349"
     id="path10283-6"
     cx="366.36502"
     cy="347.01279"
     r="7" />
  <circle
     style="fill:#fbba26;fill-opacity:1;stroke-width:0.0374349"
     id="path10283-6-1"
     cx="366.36502"
     cy="365.0918"
     r="7" />
  <circle
     style="fill:#fbba26;fill-opacity:1;stroke-width:0.0374349"
     id="path10283-3"
     cx="31.853931"
     cy="30.553585"
     r="7" />
  <circle
     style="fill:#fbba26;fill-opacity:1;stroke-width:0.0374349"
     id="path10283-6-4"
     cx="31.853931"
     cy="48.952484"
     r="7" />
  <circle
     style="fill:#fbba26;fill-opacity:1;stroke-width:0.0374349"
     id="path10283-6-1-6"
     cx="31.853931"
     cy="67.139923"
     r="7" />
  <circle
     style="fill:#fbba26;fill-opacity:1;stroke-width:0.0374349"
     id="path10283-3-9"
     cx="-329.51392"
     cy="-30.553585"
     r="7"
     transform="scale(-1)" />
  <circle
     style="fill:#fbba26;fill-opacity:1;stroke-width:0.0374349"
     id="path10283-6-4-0"
     cx="-347.87213"
     cy="-30.553585"
     r="7"
     transform="scale(-1)" />
  <circle
     style="fill:#fbba26;fill-opacity:1;stroke-width:0.0374349"
     id="path10283-6-1-6-1"
     cx="-366.36502"
     cy="-30.553585"
     r="7"
     transform="scale(-1)" />
  <circle
     style="fill:#fbba26;fill-opacity:1;stroke-width:0.0374349"
     id="path10283-3-9-8"
     cx="-31.853931"
     cy="-365.0918"
     r="7"
     transform="scale(-1)" />
  <circle
     style="fill:#fbba26;fill-opacity:1;stroke-width:0.0374349"
     id="path10283-6-4-0-0"
     cx="-50.433109"
     cy="-365.0918"
     r="7"
     transform="scale(-1)" />
  <circle
     style="fill:#fbba26;fill-opacity:1;stroke-width:0.0374349"
     id="path10283-6-1-6-1-1"
     cx="-68.876686"
     cy="-365.0918"
     r="7"
     transform="scale(-1)" />
</svg>
